<?xml version="1.0" encoding="UTF-8"?>
<svg xmlns="http://www.w3.org/2000/svg" xmlns:xlink="http://www.w3.org/1999/xlink" viewBox="0 0 60 60" width="60px" height="60px">
<g id="surface21053506">
<path style=" stroke:none;fill-rule:nonzero;fill:rgb(80.000001%,80.000001%,80.000001%);fill-opacity:1;" d="M 30 6 C 16.746094 6 6 16.746094 6 30 C 6 43.253906 16.746094 54 30 54 C 43.253906 54 54 43.253906 54 30 C 54 16.746094 43.253906 6 30 6 Z M 24 42 C 17.371094 42 12 36.628906 12 30 C 12 23.371094 17.371094 18 24 18 C 27.121094 18 29.960938 19.191406 32.09375 21.144531 L 29.226562 23.953125 C 27.824219 22.738281 26 22 24 22 C 19.582031 22 16 25.582031 16 30 C 16 34.417969 19.582031 38 24 38 C 27.960938 38 31.242188 35.117188 31.878906 31.335938 L 24 31.335938 L 24 27.335938 L 35.6875 27.335938 L 35.753906 27.601562 C 35.910156 28.375 36 29.179688 36 30 C 36 36.628906 30.628906 42 24 42 Z M 46 32 L 46 36 L 42 36 L 42 32 L 38 32 L 38 28 L 42 28 L 42 24 L 46 24 L 46 28 L 50 28 L 50 32 Z M 46 32 "/>
</g>
</svg>
