<?xml version="1.0" encoding="UTF-8"?>
<svg xmlns="http://www.w3.org/2000/svg" xmlns:xlink="http://www.w3.org/1999/xlink" viewBox="0 0 60 60" width="60px" height="60px">
<g id="surface21048010">
<path style=" stroke:none;fill-rule:nonzero;fill:rgb(80.000001%,80.000001%,80.000001%);fill-opacity:1;" d="M 30 6 C 16.746094 6 6 16.746094 6 30 C 6 40.167969 12.324219 48.851562 21.253906 52.347656 C 21.042969 50.449219 20.855469 47.535156 21.339844 45.464844 C 21.773438 43.59375 24.152344 33.535156 24.152344 33.535156 C 24.152344 33.535156 23.433594 32.097656 23.433594 29.972656 C 23.433594 26.632812 25.367188 24.144531 27.777344 24.144531 C 29.824219 24.144531 30.8125 25.683594 30.8125 27.523438 C 30.8125 29.585938 29.503906 32.660156 28.824219 35.515625 C 28.257812 37.902344 30.023438 39.851562 32.378906 39.851562 C 36.644531 39.851562 39.921875 35.355469 39.921875 28.863281 C 39.921875 23.117188 35.792969 19.097656 29.898438 19.097656 C 23.070312 19.097656 19.0625 24.21875 19.0625 29.515625 C 19.0625 31.574219 19.855469 33.789062 20.847656 34.992188 C 21.042969 35.230469 21.070312 35.4375 21.015625 35.679688 C 20.832031 36.4375 20.429688 38.066406 20.347656 38.402344 C 20.242188 38.84375 20 38.933594 19.546875 38.722656 C 16.546875 37.324219 14.675781 32.945312 14.675781 29.425781 C 14.675781 21.855469 20.175781 14.898438 30.53125 14.898438 C 38.859375 14.898438 45.328125 20.832031 45.328125 28.761719 C 45.328125 37.035156 40.113281 43.691406 32.875 43.691406 C 30.441406 43.691406 28.15625 42.425781 27.375 40.933594 C 27.375 40.933594 26.171875 45.515625 25.878906 46.640625 C 25.335938 48.722656 23.875 51.339844 22.894531 52.933594 C 25.140625 53.625 27.527344 54 30 54 C 43.253906 54 54 43.253906 54 30 C 54 16.746094 43.253906 6 30 6 Z M 30 6 "/>
</g>
</svg>
