<?xml version="1.0" encoding="UTF-8"?>
<svg xmlns="http://www.w3.org/2000/svg" xmlns:xlink="http://www.w3.org/1999/xlink" viewBox="0 0 60 60" width="60px" height="60px">
<g id="surface21916923">
<path style=" stroke:none;fill-rule:nonzero;fill:rgb(80.000001%,80.000001%,80.000001%);fill-opacity:1;" d="M 30 6 C 16.800781 6 6 16.800781 6 30 C 6 43.199219 16.800781 54 30 54 C 43.199219 54 54 43.199219 54 30 C 54 16.800781 43.199219 6 30 6 Z M 30 20 C 28.800781 20 28 20.800781 28 22 L 28 34 C 28 37.398438 25.398438 40 22 40 C 18.601562 40 16 37.398438 16 34 L 16 30 L 20 30 L 20 34 C 20 35.199219 20.800781 36 22 36 C 23.199219 36 24 35.199219 24 34 L 24 22 C 24 18.601562 26.601562 16 30 16 C 33.398438 16 36 18.601562 36 22 L 36 24 C 36 25.199219 35.199219 26 34 26 C 32.800781 26 32 25.199219 32 24 L 32 22 C 32 20.800781 31.199219 20 30 20 Z M 44 34 C 44 37.398438 41.398438 40 38 40 C 34.601562 40 32 37.398438 32 34 L 32 29.398438 C 32.601562 29.800781 33.199219 30 34 30 C 34.800781 30 35.398438 29.800781 36 29.398438 L 36 34 C 36 35.199219 36.800781 36 38 36 C 39.199219 36 40 35.199219 40 34 L 40 30 L 44 30 Z M 44 34 "/>
</g>
</svg>
